<svg width="100px" height="100px" viewBox="-2.4 -2.4 28.80 28.80" fill="none" xmlns="http://www.w3.org/2000/svg"><g id="SVGRepo_bgCarrier" stroke-width="0"><path transform="translate(-2.4,-2.4)" d="M14.4,27.35034983307123C16.17470015880036,27.62349705009052,18.013630026776312,26.8889274719571,19.537783653705183,25.939651022585807C21.00781483747105,25.024083222900043,21.86635910176372,23.44328084490101,22.901922392425956,22.0551653064467C23.869460659685455,20.758233564135516,24.699515361926053,19.42087547312363,25.46458424835277,17.995101352918184C26.34145585644876,16.36097288717258,28.158701567203497,14.807354373275128,27.763353391158955,12.995454961237256C27.351434607576564,11.10761167017273,24.453777581663193,10.825926317647255,23.52999649434662,9.128794066288645C22.57298589264713,7.370613931042252,24.02420133859575,4.553125623649926,22.47680619153074,3.283229982827456C20.97307358190076,2.0491667317220883,18.65507216513746,3.56565147267301,16.710082217108774,3.5319176460193513C15.115808894920226,3.504266634278252,13.565429602440853,2.8065715842137666,11.998428289801543,3.1014934221286583C10.420395125752506,3.3984915403038904,9.212201764030143,4.60027088344297,7.731601948167697,5.221737482952821C5.856582885002526,6.00875751950648,3.370011330947701,5.720849239622622,2.0575420168035055,7.274078560939851C0.794946563986171,8.768285135633324,1.1220962191332808,11.051654562148611,1.1525632017089156,13.007638286085225C1.1811907800707753,14.845532051656209,1.7871817409666002,16.570282649534093,2.2301297501754487,18.354230544766875C2.69901743616063,20.242649011773555,2.331684482467667,22.684420242129754,3.855651800673676,23.894173763158058C5.463648600388032,25.170631445037113,7.970282525269463,23.8200830701324,9.921201563754506,24.459545990712055C11.62836462522807,25.0191117418584,12.624378239403208,27.077060770701536,14.4,27.35034983307123" fill="#008CC5" strokewidth="0"></path></g><g id="SVGRepo_iconCarrier"> <circle cx="12" cy="12" r="10" stroke="#fff" stroke-width="1.2" stroke-linecap="round"></circle> <path d="M7.88124 15.7559C8.37391 16.1826 9.02309 16.4909 9.72265 16.6928C10.4301 16.897 11.2142 17 12 17C12.7858 17 13.5699 16.897 14.2774 16.6928C14.9769 16.4909 15.6261 16.1826 16.1188 15.7559" stroke="#fff" stroke-width="1.2" stroke-linecap="round"></path> <circle cx="9" cy="10" r="1.25" fill="#fff" stroke="#fff" stroke-width="1.2" stroke-linecap="round"></circle> <circle cx="15" cy="10" r="1.25" fill="#fff" stroke="#fff" stroke-width="1.2" stroke-linecap="round"></circle> </g></svg>