<svg width="100px" height="100px" viewBox="-2.5 -2.5 30.00 30.00" fill="none" xmlns="http://www.w3.org/2000/svg"><g id="SVGRepo_bgCarrier" stroke-width="0"><path transform="translate(-2.5,-2.5)" d="M15,25.98343115665817C17.772214008624587,26.2024179358192,20.596861965902118,25.956781722016647,22.948746468001332,24.472947159861125C25.581684519347732,22.811792253183068,27.827549806208598,20.413360697662135,28.60615318780058,17.399131910661733C29.427444832906804,14.219642869475688,29.263927113569057,10.51451863798921,27.217797683580514,7.946051218480408C25.275686664436005,5.508156134898312,21.570100895887194,6.059409672805905,18.66757426754188,4.923422515755858C15.641193060551247,3.7389613122288847,13.035420740493915,0.10034956123208927,9.976553908483064,1.1981952957096405C6.91903707769932,2.295556506613557,6.9771345341769315,6.635898771218569,5.6433067078107415,9.597910609029759C4.503772834531261,12.128456722643376,2.3138711756396693,14.418812156851871,2.7921118780099503,17.152580053377232C3.270589336891515,19.887701321430008,5.789739654738424,21.667806057186382,8.039489534290805,23.295213353798523C10.117360933514103,24.79828847661639,12.4434398201279,25.781479619807197,15,25.98343115665817" fill="#008CC5" strokewidth="0"></path></g><g id="SVGRepo_iconCarrier"> <path d="M15.9957 11.5C14.8197 10.912 11.9957 9 10.4957 9C8.9957 9 5.17825 11.7674 6 13C7 14.5 9.15134 11.7256 10.4957 12C11.8401 12.2744 13 13.5 13 14.5C13 15.5 11.8401 16.939 10.4957 16.5C9.15134 16.061 8.58665 14.3415 7.4957 14C6.21272 13.5984 5.05843 14.6168 5.5 15.5C5.94157 16.3832 7.10688 17.6006 8.4957 19C9.74229 20.2561 11.9957 21.5 14.9957 20C17.9957 18.5 18.5 16.2498 18.5 13C18.5 11.5 13.7332 5.36875 11.9957 4.5C10.9957 4 10 5 10.9957 6.5C11.614 7.43149 13.5 9.27705 14 10.3751M15.5 8C15.5 8 15.3707 7.5 14.9957 6C14.4957 4 15.9957 3.5 16.4957 4.5C17.1281 5.76491 18.2872 10.9147 18.4957 13" stroke="#ffffff" stroke-width="1.2"></path> </g></svg>