<svg width="100px" height="100px" viewBox="-2.88 -2.88 29.76 29.76" id="Layer_1" data-name="Layer 1" xmlns="http://www.w3.org/2000/svg" fill="#000000" stroke="#000000"><g id="SVGRepo_bgCarrier" stroke-width="0"><path transform="translate(-2.88,-2.88)" d="M14.88,29.340939540532418C17.860496136942995,29.388306741390025,20.54096065682408,27.741608681252785,22.910728359864653,25.933349322732827C25.232177491282165,24.161959615704706,27.115744097239737,21.921220684814827,28.17163311049403,19.198713392700963C29.275484607124422,16.352539494437973,30.376759239702228,13.011872023579011,28.9736495873651,10.30069565726031C27.596632522078668,7.639937022178886,23.930158547396125,7.493180300153256,21.337089096929457,5.992579308114762C19.114087901750793,4.706135631032563,17.448258791750117,2.17154922924158,14.88,2.144745746841654C12.30590011612298,2.117881304225989,10.338151166073295,4.253376111470991,8.32424073935267,5.856771478683545C6.4056551259738725,7.38427302159053,4.419346887535556,8.90736298116036,3.52019052036934,11.188974154614716C2.5852516443357314,13.56138351960429,2.6827306544256726,16.169733674258843,3.283378175311183,18.647970840605783C3.924849003873496,21.294642629289495,5.0305206436065895,23.834930763133443,7.032608285440187,25.68100807877541C9.20776078729055,27.686664378641613,11.921666822128685,29.293924562018244,14.88,29.340939540532418" fill="#008CC5" strokewidth="0"></path></g><g id="SVGRepo_iconCarrier"><defs><style>.cls-1{fill:none;stroke:#fff;stroke-miterlimit:10;stroke-width:1.2;}</style></defs><circle class="cls-1" cx="12" cy="5.16" r="3.91"></circle><path class="cls-1" d="M17.34,12.52c3.24.66,5.41,1.93,5.41,3.39,0,1.91-3.79,3.51-8.8,3.84"></path><path class="cls-1" d="M6.66,12.52c-3.24.66-5.41,1.93-5.41,3.39,0,2,4.28,3.71,9.75,3.89"></path><polyline class="cls-1" points="8.09 16.89 11.02 19.82 8.09 22.75"></polyline><path class="cls-1" d="M17.86,15.91v-1h0A5.86,5.86,0,0,0,12,9.07h0a5.86,5.86,0,0,0-5.86,5.86h0v1"></path></g></svg>